<?xml version="1.0" encoding="utf-8"?>
<!-- Generator: Adobe Illustrator 22.0.1, SVG Export Plug-In . SVG Version: 6.00 Build 0)  -->
<svg version="1.1" id="Layer_1" xmlns="http://www.w3.org/2000/svg" xmlns:xlink="http://www.w3.org/1999/xlink" x="0px" y="0px"
	 viewBox="0 0 30 30" style="enable-background:new 0 0 30 30;" xml:space="preserve">
<style type="text/css">
	.st0{fill:url(#SVGID_1_);}
	.st1{fill:url(#SVGID_2_);}
	.st2{fill:url(#SVGID_3_);}
</style>
<linearGradient id="SVGID_1_" gradientUnits="userSpaceOnUse" x1="15.0499" y1="2.2675" x2="15.0499" y2="31.5995" gradientTransform="matrix(1 0 0 -1 0 32)">
	<stop  offset="1.657501e-02" style="stop-color:#BD0404"/>
	<stop  offset="0.3892" style="stop-color:#A10209"/>
	<stop  offset="0.7564" style="stop-color:#8C010E"/>
	<stop  offset="1" style="stop-color:#85000F"/>
</linearGradient>
<path class="st0" d="M29.5,10.9c-1.1,7.3-9,13.7-14.5,18.8C9.6,24.5,1.7,18.1,0.6,11C-0.3,5.5,2.3,1.3,6.1,0.5
	C8.4,0,12.4,1.8,15,4.9c2.6-3.1,6.3-5,8.9-4.3C27.8,1.6,30.4,4.7,29.5,10.9z"/>
<radialGradient id="SVGID_2_" cx="-26.9767" cy="11.275" r="12.7456" gradientTransform="matrix(1 0 0 -1 0 32)" gradientUnits="userSpaceOnUse">
	<stop  offset="1.657501e-02" style="stop-color:#DB0505"/>
	<stop  offset="0.3251" style="stop-color:#D80506"/>
	<stop  offset="0.5765" style="stop-color:#CE0409"/>
	<stop  offset="0.8071" style="stop-color:#BD020D"/>
	<stop  offset="1" style="stop-color:#A80013"/>
</radialGradient>
<path class="st1" d="M-27.4,33c-3.2-3.2-11.2-9.2-12.4-16.4c-0.6-4.2,1.2-7.6,4.2-8.2c0.2-0.1,0.5-0.1,0.8-0.1
	c1.9,0,4.7,1.5,6.6,3.8l1.2,1.5l1.2-1.5c1.7-2,4.2-3.9,6.3-3.9c0.4,0,0.7,0,1,0.1c3.4,0.9,5,3.5,4.3,8.2C-15,21.6-19.8,27.4-26.5,33
	l-0.5,0.3L-27.4,33z"/>
<linearGradient id="SVGID_3_" gradientUnits="userSpaceOnUse" x1="-20.4897" y1="23.825" x2="-20.4897" y2="50.525" gradientTransform="matrix(1 0 0 -1 0 32)">
	<stop  offset="0.4088" style="stop-color:#C93918;stop-opacity:0"/>
	<stop  offset="0.4385" style="stop-color:#D14F32;stop-opacity:4.671769e-02"/>
	<stop  offset="0.4937" style="stop-color:#DD725D;stop-opacity:0.1335"/>
	<stop  offset="0.5517" style="stop-color:#E79082;stop-opacity:0.2248"/>
	<stop  offset="0.612" style="stop-color:#F0A9A0;stop-opacity:0.3198"/>
	<stop  offset="0.6755" style="stop-color:#F7BCB7;stop-opacity:0.4196"/>
	<stop  offset="0.7434" style="stop-color:#FBC9C7;stop-opacity:0.5265"/>
	<stop  offset="0.8189" style="stop-color:#FED1D1;stop-opacity:0.6454"/>
	<stop  offset="0.9171" style="stop-color:#FFD4D4;stop-opacity:0.8"/>
	<stop  offset="0.9545" style="stop-color:#FFD9D9;stop-opacity:0.8903"/>
	<stop  offset="0.9998" style="stop-color:#FFE8E8;stop-opacity:0.9995"/>
	<stop  offset="1" style="stop-color:#FFE8E8"/>
</linearGradient>
<path class="st2" d="M-21.4,7.5c-0.6-0.6-1.3-1.2-2-1.9C-27.2,2.1-33-3.1-34-9.3c-0.7-4.5,1.3-8.3,4.7-9c0.3-0.1,0.6-0.1,1-0.1
	c2.2,0,5.2,1.7,7.1,4l0.7,0.8l0.7-0.8c1.7-2,4.4-4.1,6.8-4.1c0.4,0,0.8,0.1,1.2,0.2c3.9,1.1,5.5,4.1,4.8,8.9
	C-7.9-3.3-14.3,3.2-19.6,7.5l-0.9,0.7L-21.4,7.5z"/>
</svg>
